<svg id="visual" viewBox="0 0 960 540" width="960" height="540" xmlns="http://www.w3.org/2000/svg" xmlns:xlink="http://www.w3.org/1999/xlink" version="1.1"><rect x="0" y="0" width="960" height="540" fill="#1b1b1b"></rect><path d="M0 383L22.8 379.5C45.7 376 91.3 369 137 367.3C182.7 365.7 228.3 369.3 274 361.5C319.7 353.7 365.3 334.3 411.2 321C457 307.7 503 300.3 548.8 303.8C594.7 307.3 640.3 321.7 686 325.5C731.7 329.3 777.3 322.7 823 321.8C868.7 321 914.3 326 937.2 328.5L960 331L960 541L937.2 541C914.3 541 868.7 541 823 541C777.3 541 731.7 541 686 541C640.3 541 594.7 541 548.8 541C503 541 457 541 411.2 541C365.3 541 319.7 541 274 541C228.3 541 182.7 541 137 541C91.3 541 45.7 541 22.8 541L0 541Z" fill="#fa7268"></path><path d="M0 378L22.8 381.5C45.7 385 91.3 392 137 398.5C182.7 405 228.3 411 274 414C319.7 417 365.3 417 411.2 412C457 407 503 397 548.8 390.7C594.7 384.3 640.3 381.7 686 378.7C731.7 375.7 777.3 372.3 823 369.2C868.7 366 914.3 363 937.2 361.5L960 360L960 541L937.2 541C914.3 541 868.7 541 823 541C777.3 541 731.7 541 686 541C640.3 541 594.7 541 548.8 541C503 541 457 541 411.2 541C365.3 541 319.7 541 274 541C228.3 541 182.7 541 137 541C91.3 541 45.7 541 22.8 541L0 541Z" fill="#e25f58"></path><path d="M0 435L22.8 439.5C45.7 444 91.3 453 137 452.2C182.7 451.3 228.3 440.7 274 430.7C319.7 420.7 365.3 411.3 411.2 404.3C457 397.3 503 392.7 548.8 391.2C594.7 389.7 640.3 391.3 686 395.8C731.7 400.3 777.3 407.7 823 412C868.7 416.3 914.3 417.7 937.2 418.3L960 419L960 541L937.2 541C914.3 541 868.7 541 823 541C777.3 541 731.7 541 686 541C640.3 541 594.7 541 548.8 541C503 541 457 541 411.2 541C365.3 541 319.7 541 274 541C228.3 541 182.7 541 137 541C91.3 541 45.7 541 22.8 541L0 541Z" fill="#ca4c48"></path><path d="M0 450L22.8 457.8C45.7 465.7 91.3 481.3 137 482.8C182.7 484.3 228.3 471.7 274 470.5C319.7 469.3 365.3 479.7 411.2 479C457 478.3 503 466.7 548.8 465.3C594.7 464 640.3 473 686 481C731.7 489 777.3 496 823 493.5C868.7 491 914.3 479 937.2 473L960 467L960 541L937.2 541C914.3 541 868.7 541 823 541C777.3 541 731.7 541 686 541C640.3 541 594.7 541 548.8 541C503 541 457 541 411.2 541C365.3 541 319.7 541 274 541C228.3 541 182.7 541 137 541C91.3 541 45.7 541 22.8 541L0 541Z" fill="#b33939"></path></svg>