<svg id="visual" viewBox="0 0 960 540" width="960" height="540" xmlns="http://www.w3.org/2000/svg" xmlns:xlink="http://www.w3.org/1999/xlink" version="1.1"><path d="M0 397L22.8 402.5C45.7 408 91.3 419 137 416.2C182.7 413.3 228.3 396.7 274 394.3C319.7 392 365.3 404 411.2 403C457 402 503 388 548.8 389.5C594.7 391 640.3 408 686 408.8C731.7 409.7 777.3 394.3 823 386.2C868.7 378 914.3 377 937.2 376.5L960 376L960 541L937.2 541C914.3 541 868.7 541 823 541C777.3 541 731.7 541 686 541C640.3 541 594.7 541 548.8 541C503 541 457 541 411.2 541C365.3 541 319.7 541 274 541C228.3 541 182.7 541 137 541C91.3 541 45.7 541 22.8 541L0 541Z" fill="#ff8e86"></path><path d="M0 422L22.8 428.8C45.7 435.7 91.3 449.3 137 454.3C182.7 459.3 228.3 455.7 274 445.7C319.7 435.7 365.3 419.3 411.2 418.8C457 418.3 503 433.7 548.8 440.5C594.7 447.3 640.3 445.7 686 444.7C731.7 443.7 777.3 443.3 823 438.8C868.7 434.3 914.3 425.7 937.2 421.3L960 417L960 541L937.2 541C914.3 541 868.7 541 823 541C777.3 541 731.7 541 686 541C640.3 541 594.7 541 548.8 541C503 541 457 541 411.2 541C365.3 541 319.7 541 274 541C228.3 541 182.7 541 137 541C91.3 541 45.7 541 22.8 541L0 541Z" fill="#e8726b"></path><path d="M0 489L22.8 487.5C45.7 486 91.3 483 137 475.5C182.7 468 228.3 456 274 453.5C319.7 451 365.3 458 411.2 459.5C457 461 503 457 548.8 458.2C594.7 459.3 640.3 465.7 686 467C731.7 468.3 777.3 464.7 823 459.8C868.7 455 914.3 449 937.2 446L960 443L960 541L937.2 541C914.3 541 868.7 541 823 541C777.3 541 731.7 541 686 541C640.3 541 594.7 541 548.8 541C503 541 457 541 411.2 541C365.3 541 319.7 541 274 541C228.3 541 182.7 541 137 541C91.3 541 45.7 541 22.8 541L0 541Z" fill="#d05651"></path><path d="M0 481L22.8 484.7C45.7 488.3 91.3 495.7 137 496.3C182.7 497 228.3 491 274 490.5C319.7 490 365.3 495 411.2 493.3C457 491.7 503 483.3 548.8 484.5C594.7 485.7 640.3 496.3 686 498.5C731.7 500.7 777.3 494.3 823 496C868.7 497.7 914.3 507.3 937.2 512.2L960 517L960 541L937.2 541C914.3 541 868.7 541 823 541C777.3 541 731.7 541 686 541C640.3 541 594.7 541 548.8 541C503 541 457 541 411.2 541C365.3 541 319.7 541 274 541C228.3 541 182.7 541 137 541C91.3 541 45.7 541 22.8 541L0 541Z" fill="#b93838"></path></svg>