<svg id="visual" viewBox="0 0 540 960" width="540" height="960" xmlns="http://www.w3.org/2000/svg" xmlns:xlink="http://www.w3.org/1999/xlink" version="1.1"><path d="M0 706L12.8 715.8C25.7 725.7 51.3 745.3 77 740.5C102.7 735.7 128.3 706.3 154 702.2C179.7 698 205.3 719 231.2 717.2C257 715.3 283 690.7 308.8 693.5C334.7 696.3 360.3 726.7 386 728C411.7 729.3 437.3 701.7 463 687.2C488.7 672.7 514.3 671.3 527.2 670.7L540 670L540 961L527.2 961C514.3 961 488.7 961 463 961C437.3 961 411.7 961 386 961C360.3 961 334.7 961 308.8 961C283 961 257 961 231.2 961C205.3 961 179.7 961 154 961C128.3 961 102.7 961 77 961C51.3 961 25.7 961 12.8 961L0 961Z" fill="#ff8e86"></path><path d="M0 750L12.8 762.5C25.7 775 51.3 800 77 809C102.7 818 128.3 811 154 793.2C179.7 775.3 205.3 746.7 231.2 745.7C257 744.7 283 771.3 308.8 783.3C334.7 795.3 360.3 792.7 386 791.2C411.7 789.7 437.3 789.3 463 781.5C488.7 773.7 514.3 758.3 527.2 750.7L540 743L540 961L527.2 961C514.3 961 488.7 961 463 961C437.3 961 411.7 961 386 961C360.3 961 334.7 961 308.8 961C283 961 257 961 231.2 961C205.3 961 179.7 961 154 961C128.3 961 102.7 961 77 961C51.3 961 25.7 961 12.8 961L0 961Z" fill="#e8726b"></path><path d="M0 869L12.8 866.7C25.7 864.3 51.3 859.7 77 846.7C102.7 833.7 128.3 812.3 154 807.7C179.7 803 205.3 815 231.2 817.7C257 820.3 283 813.7 308.8 815.7C334.7 817.7 360.3 828.3 386 830.7C411.7 833 437.3 827 463 818.5C488.7 810 514.3 799 527.2 793.5L540 788L540 961L527.2 961C514.3 961 488.7 961 463 961C437.3 961 411.7 961 386 961C360.3 961 334.7 961 308.8 961C283 961 257 961 231.2 961C205.3 961 179.7 961 154 961C128.3 961 102.7 961 77 961C51.3 961 25.7 961 12.8 961L0 961Z" fill="#d05651"></path><path d="M0 856L12.8 862.3C25.7 868.7 51.3 881.3 77 882.3C102.7 883.3 128.3 872.7 154 872C179.7 871.3 205.3 880.7 231.2 877.8C257 875 283 860 308.8 862C334.7 864 360.3 883 386 887C411.7 891 437.3 880 463 882.8C488.7 885.7 514.3 902.3 527.2 910.7L540 919L540 961L527.2 961C514.3 961 488.7 961 463 961C437.3 961 411.7 961 386 961C360.3 961 334.7 961 308.8 961C283 961 257 961 231.2 961C205.3 961 179.7 961 154 961C128.3 961 102.7 961 77 961C51.3 961 25.7 961 12.8 961L0 961Z" fill="#b93838"></path></svg>