<svg id="visual" viewBox="0 0 540 960" width="540" height="960" xmlns="http://www.w3.org/2000/svg" xmlns:xlink="http://www.w3.org/1999/xlink" version="1.1"><rect x="0" y="0" width="540" height="960" fill="#1b1b1b"></rect><path d="M0 682L12.8 675.7C25.7 669.3 51.3 656.7 77 653.8C102.7 651 128.3 658 154 644.3C179.7 630.7 205.3 596.3 231.2 572.3C257 548.3 283 534.7 308.8 540.7C334.7 546.7 360.3 572.3 386 579.3C411.7 586.3 437.3 574.7 463 573C488.7 571.3 514.3 579.7 527.2 583.8L540 588L540 961L527.2 961C514.3 961 488.7 961 463 961C437.3 961 411.7 961 386 961C360.3 961 334.7 961 308.8 961C283 961 257 961 231.2 961C205.3 961 179.7 961 154 961C128.3 961 102.7 961 77 961C51.3 961 25.7 961 12.8 961L0 961Z" fill="#fa7268"></path><path d="M0 672L12.8 678.3C25.7 684.7 51.3 697.3 77 709C102.7 720.7 128.3 731.3 154 736.7C179.7 742 205.3 742 231.2 733.2C257 724.3 283 706.7 308.8 695.3C334.7 684 360.3 679 386 673.7C411.7 668.3 437.3 662.7 463 657.2C488.7 651.7 514.3 646.3 527.2 643.7L540 641L540 961L527.2 961C514.3 961 488.7 961 463 961C437.3 961 411.7 961 386 961C360.3 961 334.7 961 308.8 961C283 961 257 961 231.2 961C205.3 961 179.7 961 154 961C128.3 961 102.7 961 77 961C51.3 961 25.7 961 12.8 961L0 961Z" fill="#e25f58"></path><path d="M0 774L12.8 782.2C25.7 790.3 51.3 806.7 77 805.2C102.7 803.7 128.3 784.3 154 766.5C179.7 748.7 205.3 732.3 231.2 720C257 707.7 283 699.3 308.8 696.5C334.7 693.7 360.3 696.3 386 704.2C411.7 712 437.3 725 463 732.8C488.7 740.7 514.3 743.3 527.2 744.7L540 746L540 961L527.2 961C514.3 961 488.7 961 463 961C437.3 961 411.7 961 386 961C360.3 961 334.7 961 308.8 961C283 961 257 961 231.2 961C205.3 961 179.7 961 154 961C128.3 961 102.7 961 77 961C51.3 961 25.7 961 12.8 961L0 961Z" fill="#ca4c48"></path><path d="M0 801L12.8 815C25.7 829 51.3 857 77 859.5C102.7 862 128.3 839 154 836.8C179.7 834.7 205.3 853.3 231.2 852.3C257 851.3 283 830.7 308.8 828.3C334.7 826 360.3 842 386 856.2C411.7 870.3 437.3 882.7 463 878C488.7 873.3 514.3 851.7 527.2 840.8L540 830L540 961L527.2 961C514.3 961 488.7 961 463 961C437.3 961 411.7 961 386 961C360.3 961 334.7 961 308.8 961C283 961 257 961 231.2 961C205.3 961 179.7 961 154 961C128.3 961 102.7 961 77 961C51.3 961 25.7 961 12.8 961L0 961Z" fill="#b33939"></path></svg>